<svg width="22" height="20" viewBox="0 0 22 20" fill="none" xmlns="http://www.w3.org/2000/svg">
<path fill-rule="evenodd" clip-rule="evenodd" d="M2 0.25C1.80109 0.25 1.61032 0.329018 1.46967 0.46967C1.32902 0.610322 1.25 0.801088 1.25 1C1.25 1.19891 1.32902 1.38968 1.46967 1.53033C1.61032 1.67098 1.80109 1.75 2 1.75V18.25H1.25C1.05109 18.25 0.860322 18.329 0.71967 18.4697C0.579018 18.6103 0.5 18.8011 0.5 19C0.5 19.1989 0.579018 19.3897 0.71967 19.5303C0.860322 19.671 1.05109 19.75 1.25 19.75H14V1.75C14.1989 1.75 14.3897 1.67098 14.5303 1.53033C14.671 1.38968 14.75 1.19891 14.75 1C14.75 0.801088 14.671 0.610322 14.5303 0.46967C14.3897 0.329018 14.1989 0.25 14 0.25H2ZM5.75 17.5V15.25C5.75 15.0511 5.82902 14.8603 5.96967 14.7197C6.11032 14.579 6.30109 14.5 6.5 14.5H9.5C9.69891 14.5 9.88968 14.579 10.0303 14.7197C10.171 14.8603 10.25 15.0511 10.25 15.25V17.5C10.25 17.6989 10.171 17.8897 10.0303 18.0303C9.88968 18.171 9.69891 18.25 9.5 18.25H6.5C6.30109 18.25 6.11032 18.171 5.96967 18.0303C5.82902 17.8897 5.75 17.6989 5.75 17.5ZM5 4.75C5 4.55109 5.07902 4.36032 5.21967 4.21967C5.36032 4.07902 5.55109 4 5.75 4H6.5C6.69891 4 6.88968 4.07902 7.03033 4.21967C7.17098 4.36032 7.25 4.55109 7.25 4.75C7.25 4.94891 7.17098 5.13968 7.03033 5.28033C6.88968 5.42098 6.69891 5.5 6.5 5.5H5.75C5.55109 5.5 5.36032 5.42098 5.21967 5.28033C5.07902 5.13968 5 4.94891 5 4.75ZM5.75 7C5.55109 7 5.36032 7.07902 5.21967 7.21967C5.07902 7.36032 5 7.55109 5 7.75C5 7.94891 5.07902 8.13968 5.21967 8.28033C5.36032 8.42098 5.55109 8.5 5.75 8.5H6.5C6.69891 8.5 6.88968 8.42098 7.03033 8.28033C7.17098 8.13968 7.25 7.94891 7.25 7.75C7.25 7.55109 7.17098 7.36032 7.03033 7.21967C6.88968 7.07902 6.69891 7 6.5 7H5.75ZM5 10.75C5 10.5511 5.07902 10.3603 5.21967 10.2197C5.36032 10.079 5.55109 10 5.75 10H6.5C6.69891 10 6.88968 10.079 7.03033 10.2197C7.17098 10.3603 7.25 10.5511 7.25 10.75C7.25 10.9489 7.17098 11.1397 7.03033 11.2803C6.88968 11.421 6.69891 11.5 6.5 11.5H5.75C5.55109 11.5 5.36032 11.421 5.21967 11.2803C5.07902 11.1397 5 10.9489 5 10.75ZM9.5 4C9.30109 4 9.11032 4.07902 8.96967 4.21967C8.82902 4.36032 8.75 4.55109 8.75 4.75C8.75 4.94891 8.82902 5.13968 8.96967 5.28033C9.11032 5.42098 9.30109 5.5 9.5 5.5H10.25C10.4489 5.5 10.6397 5.42098 10.7803 5.28033C10.921 5.13968 11 4.94891 11 4.75C11 4.55109 10.921 4.36032 10.7803 4.21967C10.6397 4.07902 10.4489 4 10.25 4H9.5ZM8.75 7.75C8.75 7.55109 8.82902 7.36032 8.96967 7.21967C9.11032 7.07902 9.30109 7 9.5 7H10.25C10.4489 7 10.6397 7.07902 10.7803 7.21967C10.921 7.36032 11 7.55109 11 7.75C11 7.94891 10.921 8.13968 10.7803 8.28033C10.6397 8.42098 10.4489 8.5 10.25 8.5H9.5C9.30109 8.5 9.11032 8.42098 8.96967 8.28033C8.82902 8.13968 8.75 7.94891 8.75 7.75ZM9.5 10C9.30109 10 9.11032 10.079 8.96967 10.2197C8.82902 10.3603 8.75 10.5511 8.75 10.75C8.75 10.9489 8.82902 11.1397 8.96967 11.2803C9.11032 11.421 9.30109 11.5 9.5 11.5H10.25C10.4489 11.5 10.6397 11.421 10.7803 11.2803C10.921 11.1397 11 10.9489 11 10.75C11 10.5511 10.921 10.3603 10.7803 10.2197C10.6397 10.079 10.4489 10 10.25 10H9.5ZM15.5 4.75V19.75H20.75C20.9489 19.75 21.1397 19.671 21.2803 19.5303C21.421 19.3897 21.5 19.1989 21.5 19C21.5 18.8011 21.421 18.6103 21.2803 18.4697C21.1397 18.329 20.9489 18.25 20.75 18.25H20V6.25C20.1989 6.25 20.3897 6.17098 20.5303 6.03033C20.671 5.88968 20.75 5.69891 20.75 5.5C20.75 5.30109 20.671 5.11032 20.5303 4.96967C20.3897 4.82902 20.1989 4.75 20 4.75H15.5ZM17 9.25C17 9.05109 17.079 8.86032 17.2197 8.71967C17.3603 8.57902 17.5511 8.5 17.75 8.5H17.758C17.9569 8.5 18.1477 8.57902 18.2883 8.71967C18.429 8.86032 18.508 9.05109 18.508 9.25V9.258C18.508 9.45691 18.429 9.64768 18.2883 9.78833C18.1477 9.92898 17.9569 10.008 17.758 10.008H17.75C17.5511 10.008 17.3603 9.92898 17.2197 9.78833C17.079 9.64768 17 9.45691 17 9.258V9.25ZM17.75 11.5C17.5511 11.5 17.3603 11.579 17.2197 11.7197C17.079 11.8603 17 12.0511 17 12.25V12.258C17 12.672 17.336 13.008 17.75 13.008H17.758C17.9569 13.008 18.1477 12.929 18.2883 12.7883C18.429 12.6477 18.508 12.4569 18.508 12.258V12.25C18.508 12.0511 18.429 11.8603 18.2883 11.7197C18.1477 11.579 17.9569 11.5 17.758 11.5H17.75ZM17 15.25C17 15.0511 17.079 14.8603 17.2197 14.7197C17.3603 14.579 17.5511 14.5 17.75 14.5H17.758C17.9569 14.5 18.1477 14.579 18.2883 14.7197C18.429 14.8603 18.508 15.0511 18.508 15.25V15.258C18.508 15.4569 18.429 15.6477 18.2883 15.7883C18.1477 15.929 17.9569 16.008 17.758 16.008H17.75C17.5511 16.008 17.3603 15.929 17.2197 15.7883C17.079 15.6477 17 15.4569 17 15.258V15.25Z" fill="white"/>
</svg>
